HIERARCHY
ROOT root
{
	OFFSET	0	13.1	24.9
	CHANNELS 6  Xposition Yposition Zposition Xrotation Yrotation Zrotation
	JOINT spine_1
	{
		OFFSET	0	9.99999	0
		CHANNELS 3  Xrotation Yrotation Zrotation
		JOINT spine_2
		{
			OFFSET	0	112	-10
			CHANNELS 3  Xrotation Yrotation Zrotation
			JOINT spine_3
			{
				OFFSET	0	206.5	19.3
				CHANNELS 3  Xrotation Yrotation Zrotation
				JOINT spine_4
				{
					OFFSET	0	110.4	14.6
					CHANNELS 3  Xrotation Yrotation Zrotation
					JOINT neck_1
					{
						OFFSET	0	71.8	-50.3
						CHANNELS 3  Xrotation Yrotation Zrotation
						JOINT neck_2
						{
							OFFSET	0	86.2	-25.8
							CHANNELS 3  Xrotation Yrotation Zrotation
							JOINT head_ee
							{
								OFFSET	0	179.8	-8.7
								CHANNELS 3  Xrotation Yrotation Zrotation
								End Site
								{
									OFFSET	1	0	0
								}
							}
						}
					}
					JOINT left_clavicle
					{
						OFFSET	-43.2	22.4	-70.8
						CHANNELS 3  Xrotation Yrotation Zrotation
						JOINT left_shoulder
						{
							OFFSET	-93.9	-5.79999	48.7
							CHANNELS 3  Xrotation Yrotation Zrotation
							JOINT left_elbow
							{
								OFFSET	-291.4	-30.8	15.2
								CHANNELS 3  Xrotation Yrotation Zrotation
								JOINT left_lowarm_twist
								{
									OFFSET	-110.7	-3.89999	13.6
									CHANNELS 3  Xrotation Yrotation Zrotation
									JOINT left_hand
									{
										OFFSET	-110.7	-3.89999	13.6
										CHANNELS 3  Xrotation Yrotation Zrotation
										JOINT left_ee
										{
											OFFSET	-80.8	-5.10001	12.1
											CHANNELS 3  Xrotation Yrotation Zrotation
											End Site
											{
												OFFSET	1	0	0
											}
										}
									}
								}
							}
						}
					}
					JOINT right_clavicle
					{
						OFFSET	43.2	22.4	-70.8
						CHANNELS 3  Xrotation Yrotation Zrotation
						JOINT right_shoulder
						{
							OFFSET	93.9	-5.79999	48.7
							CHANNELS 3  Xrotation Yrotation Zrotation
							JOINT right_elbow
							{
								OFFSET	291.4	-30.8	15.2
								CHANNELS 3  Xrotation Yrotation Zrotation
								JOINT right_lowarm_twist
								{
									OFFSET	110.7	-3.89999	13.6
									CHANNELS 3  Xrotation Yrotation Zrotation
									JOINT right_hand
									{
										OFFSET	110.7	-3.89999	13.6
										CHANNELS 3  Xrotation Yrotation Zrotation
										JOINT right_ee
										{
											OFFSET	80.8	-5.10001	12.1
											CHANNELS 3  Xrotation Yrotation Zrotation
											End Site
											{
												OFFSET	1	0	0
											}
										}
									}
								}
							}
						}
					}
				}
			}
		}
	}
	JOINT left_hip
	{
		OFFSET	-82.8	-127.5	0.300001
		CHANNELS 3  Xrotation Yrotation Zrotation
		JOINT left_knee
		{
			OFFSET	-28.2	-396.7	2.2
			CHANNELS 3  Xrotation Yrotation Zrotation
			JOINT left_ankle
			{
				OFFSET	-11.7	-411.3	35.4
				CHANNELS 3  Xrotation Yrotation Zrotation
				JOINT left_toes
				{
					OFFSET	0	-60	-88.6
					CHANNELS 3  Xrotation Yrotation Zrotation
					JOINT left_foot_ee
					{
						OFFSET	-22.5	-16.5	-42.2
						CHANNELS 3  Xrotation Yrotation Zrotation
						End Site
						{
							OFFSET	1	0	0
						}
					}
				}
			}
		}
	}
	JOINT right_hip
	{
		OFFSET	82.8	-127.5	0.300001
		CHANNELS 3  Xrotation Yrotation Zrotation
		JOINT right_knee
		{
			OFFSET	28.2	-396.7	2.2
			CHANNELS 3  Xrotation Yrotation Zrotation
			JOINT right_ankle
			{
				OFFSET	11.7	-411.3	35.4
				CHANNELS 3  Xrotation Yrotation Zrotation
				JOINT right_toes
				{
					OFFSET	0	-60	-88.6
					CHANNELS 3  Xrotation Yrotation Zrotation
					JOINT right_foot_ee
					{
						OFFSET	22.5	-16.5	-42.2
						CHANNELS 3  Xrotation Yrotation Zrotation
						End Site
						{
							OFFSET	1	0	0
						}
					}
				}
			}
		}
	}
}
MOTION
Frames: 9
Frame Time: 0.02
1296.51 715.201 -1493.01 16.7186 53.7487 -5.20578 -5.19781 -0.242872 -1.72606 -5.19616 -0.132563 -1.73802 -5.18904 0.391015 -1.69865 -5.19305 0.11788 -1.73907 11.2009 17.1124 8.2052 11.7574 20.167 10.0019 -0.0 0.0 -0.0 2.85822 13.9481 6.30369 -14.3616 -17.944 73.6361 0.941299 -24.9989 0.208676 -11.0866 -0.519834 1.3165 1.38689 -3.33362 7.94203 -0.0 0.0 -0.0 10.7237 11.4681 -21.4078 1.12424 29.3535 -46.0322 1.64189 39.12 -0.583396 34.0472 0.0763658 4.2853 1.61911 5.8128 -8.48677 0.0 0.0 0.0 5.91838 -47.7281 -19.6369 -14.691 0.32109 2.22548 -11.3892 28.5598 1.80848 31.2551 -0.0 -0.0 -0.0 0.0 -0.0 -14.5648 28.4888 -8.56966 -21.531 -0.274304 -3.2733 31.2241 -17.0826 4.09333 23.7484 -0.0 -0.0 0.0 0.0 0.0 
1279.04 721.558 -1498.54 16.838 53.7565 -4.12936 -4.96596 -0.180989 -1.88497 -4.96399 -0.0606985 -1.89266 -4.9586 0.498383 -1.82689 -4.9632 0.203659 -1.88265 9.38794 16.4762 8.59832 9.89481 19.3499 10.47 -0.0 0.0 -0.0 2.47456 12.5957 5.60194 -14.1123 -18.6173 73.9043 1.01048 -26.5902 0.238781 -11.8923 -0.567421 1.40794 1.50858 -4.25173 8.38809 -0.0 0.0 -0.0 11.1712 11.2284 -22.4087 -1.12412 29.8555 -45.521 1.45996 35.8731 -0.472606 32.8031 0.0287566 4.13359 2.15103 6.98651 -11.6329 0.0 0.0 0.0 4.87517 -47.4888 -19.9859 -17.6928 0.315966 2.68596 -11.735 29.3605 1.87376 33.0135 -0.0 -0.0 -0.0 0.0 -0.0 -13.2911 20.8201 -9.33999 -25.0071 -0.202705 -3.80184 29.5134 -14.9103 3.88042 24.1416 -0.0 -0.0 0.0 0.0 0.0 
1260.4 732.854 -1503.02 18.3608 54.6794 -5.07146 -5.48157 -0.336811 -1.89937 -5.47958 -0.215289 -1.91695 -5.46831 0.374544 -1.8923 -5.47331 0.0710487 -1.92769 8.5493 16.6171 9.533 9.0486 18.9945 11.5909 -0.0 0.0 -0.0 2.38476 13.5998 5.50988 -13.0236 -18.2729 74.2644 1.08264 -28.2042 0.27199 -11.9902 -0.573289 1.41901 1.33818 -4.4055 7.16561 -0.0 0.0 -0.0 11.603 10.8152 -23.3804 -1.27111 26.7988 -46.3019 1.39454 34.6354 -0.434845 31.4696 -0.0185987 3.96988 2.28147 5.74268 -13.0649 0.0 0.0 0.0 4.17263 -47.344 -19.545 -16.8984 0.31967 2.56414 -16.9695 29.1572 2.71842 32.7181 -0.0 -0.0 -0.0 0.0 -0.0 -11.2804 22.076 -9.87077 -27.0295 -0.146331 -4.10708 28.1879 -7.75545 3.6924 24.1501 -0.0 -0.0 0.0 0.0 0.0 
1240.68 741.714 -1503.56 19.0567 54.6058 -5.61058 -5.49814 -0.364171 -2.00123 -5.49595 -0.236116 -2.02034 -5.48307 0.386482 -1.99704 -5.48864 0.0663037 -2.033 7.86137 16.1076 9.52757 8.33117 18.3729 11.5754 -0.0 0.0 -0.0 2.7004 14.4847 6.07102 -12.0507 -18.1512 74.2222 1.02931 -27.0159 0.247272 -12.1234 -0.581308 1.43405 1.08543 -3.51782 5.82287 -0.0 0.0 -0.0 11.7033 10.5593 -23.6071 -2.79013 25.975 -45.73 1.28813 32.5405 -0.375962 30.5039 -0.0505062 3.85066 2.18056 4.56188 -12.8653 0.0 0.0 0.0 3.58269 -46.5902 -18.1331 -17.7636 0.315555 2.69682 -18.7742 30.5005 3.03807 33.768 -0.0 -0.0 -0.0 0.0 -0.0 -10.2552 21.2557 -9.98639 -28.5231 -0.0977948 -4.33116 25.8236 -8.63986 3.42779 24.4699 -0.0 -0.0 0.0 0.0 0.0 
1220.77 745.635 -1508.32 20.0303 54.7293 -6.47213 -5.72981 -0.520736 -1.70681 -5.72828 -0.411089 -1.73648 -5.712 0.140787 -1.7789 -5.71639 -0.141878 -1.77881 8.93944 16.4305 10.2078 9.40437 17.9153 12.4225 -0.0 0.0 -0.0 2.29492 13.5611 5.36007 -10.0537 -17.8724 74.1173 1.14597 -29.5816 0.30259 -11.0548 -0.51798 1.31287 1.05234 -4.15583 5.33332 -0.0 0.0 -0.0 11.6868 10.2871 -23.5706 -3.92452 24.7747 -46.8524 1.23353 31.426 -0.347045 28.8132 -0.101508 3.64073 2.5099 3.87297 -15.4417 0.0 0.0 0.0 0.222487 -46.6354 -17.9101 -18.623 0.309484 2.82853 -20.5439 29.2511 3.29901 33.0519 -0.0 -0.0 -0.0 0.0 -0.0 -5.65694 20.5422 -12.4255 -33.4888 0.105297 -5.06589 26.6113 -3.52454 3.5199 24.1371 -0.0 -0.0 0.0 0.0 0.0 
1200.0 749.98 -1512.82 19.8915 54.6748 -6.06366 -5.60515 -0.658288 -1.59223 -5.60391 -0.55565 -1.63087 -5.58456 -0.0330853 -1.72259 -5.58857 -0.304682 -1.69576 8.10192 16.4397 10.3428 8.57858 18.0945 12.5572 -0.0 0.0 -0.0 2.40815 13.0348 5.51638 -8.61387 -17.7697 73.9931 1.18602 -30.4341 0.322625 -11.3867 -0.537408 1.35064 1.14866 -4.6064 5.79683 -0.0 0.0 -0.0 11.7945 10.1069 -23.8129 -5.10059 23.9192 -48.1301 1.09394 28.4527 -0.277353 29.208 -0.0901553 3.68988 2.42143 2.95491 -15.206 0.0 0.0 0.0 -1.49906 -45.6697 -17.3559 -19.4938 0.301318 2.9619 -23.0913 30.0463 3.73027 32.9577 -0.0 -0.0 -0.0 0.0 -0.0 -6.64314 20.1805 -11.9497 -32.1439 0.0440051 -4.86864 23.2223 -2.37861 3.13143 24.1281 -0.0 -0.0 0.0 0.0 0.0 
1182.25 748.65 -1507.42 20.0909 54.0083 -6.61109 -5.5225 -0.586612 -1.50066 -5.52138 -0.489944 -1.53494 -5.50519 -0.00189308 -1.61122 -5.50872 -0.256298 -1.59071 6.72468 14.7637 9.86488 7.11814 16.15 11.9479 -0.0 0.0 -0.0 2.98158 12.9538 6.46374 -7.5462 -17.7128 71.3212 1.24283 -31.6176 0.351904 -11.0316 -0.516632 1.31023 1.07684 -5.69174 4.85509 -0.0 0.0 -0.0 10.8539 10.7494 -21.707 -6.59138 24.8583 -48.9403 1.06555 27.8264 -0.263965 26.9948 -0.149417 3.4134 2.6942 1.84603 -17.5731 0.0 0.0 0.0 -2.84841 -45.5353 -16.9328 -18.4009 0.311242 2.7945 -18.7714 25.6028 2.94777 35.4741 -0.0 -0.0 -0.0 0.0 -0.0 -4.67808 22.1165 -11.889 -37.0292 0.288662 -5.57788 24.3346 -5.20691 3.25436 24.2285 -0.0 -0.0 0.0 0.0 0.0 
1165.66 747.532 -1514.83 22.1377 53.4311 -7.95629 -5.56354 -0.575599 -1.54052 -5.56235 -0.476418 -1.57401 -5.54605 0.0240142 -1.64434 -5.54975 -0.235944 -1.6275 8.04355 15.9256 10.2819 8.48783 17.3036 12.4837 -0.0 0.0 -0.0 3.11919 10.6581 6.5958 -3.15251 -15.6341 68.4989 1.23712 -31.5 0.348914 -10.2896 -0.474033 1.22539 0.899749 -3.37703 4.62723 -0.0 0.0 -0.0 11.3811 11.6485 -22.8737 -9.9161 25.5655 -48.2117 0.963574 25.5159 -0.21818 27.4694 -0.13761 3.47288 2.47766 1.26378 -16.2904 0.0 0.0 0.0 -3.776 -44.9835 -16.2477 -20.4893 0.2895 3.11419 -12.9321 26.9551 2.03707 34.9444 -0.0 -0.0 -0.0 0.0 -0.0 -3.12584 23.1473 -13.1775 -40.8844 0.52399 -6.12163 21.1723 -4.96302 2.87681 24.5392 -0.0 -0.0 0.0 0.0 0.0 
1148.18 743.043 -1515.73 21.9332 52.2853 -7.55918 -5.313 -0.416179 -1.54934 -5.31172 -0.31676 -1.57267 -5.30013 0.168942 -1.59533 -5.30367 -0.0850971 -1.60199 9.14985 14.5746 10.8026 9.49997 14.1878 13.1696 -0.0 0.0 -0.0 3.48052 6.88471 7.06511 -1.6932 -17.6954 66.0935 1.16124 -29.9083 0.310166 -11.3401 -0.534667 1.34534 0.354766 -2.20992 1.44723 -0.0 0.0 -0.0 11.3682 13.3031 -22.8131 -8.32419 20.3802 -50.0932 0.856349 22.9869 -0.174128 28.2658 -0.116691 3.57245 2.43728 0.507772 -16.313 0.0 0.0 0.0 -5.10019 -45.0146 -16.3983 -20.7181 0.28641 3.14917 -17.1311 23.5814 2.66085 30.7253 -0.0 -0.0 -0.0 0.0 -0.0 -2.39604 20.3325 -10.6151 -45.4043 0.845881 -6.73766 21.8391 0.916258 2.98407 24.882 -0.0 -0.0 0.0 0.0 0.0 
